<mxfile host="app.diagrams.net" modified="2023-08-17T12:44:05.841Z" agent="Mozilla/5.0 (Windows NT 10.0; Win64; x64) AppleWebKit/537.36 (KHTML, like Gecko) Chrome/116.0.0.0 Safari/537.36" etag="DcvGOQauZJoqR7ILC8SM" version="21.6.8" type="device">
  <diagram name="Page-1" id="90a13364-a465-7bf4-72fc-28e22215d7a0">
    <mxGraphModel dx="1434" dy="1309" grid="1" gridSize="10" guides="1" tooltips="1" connect="1" arrows="1" fold="1" page="1" pageScale="1.5" pageWidth="1169" pageHeight="826" background="none" math="0" shadow="0">
      <root>
        <mxCell id="0" style=";html=1;" />
        <mxCell id="1" style=";html=1;" parent="0" />
        <mxCell id="gDxfWNVTR-VDd6POjb5O-10" style="edgeStyle=orthogonalEdgeStyle;rounded=0;orthogonalLoop=1;jettySize=auto;html=1;exitX=0.5;exitY=1;exitDx=0;exitDy=0;" edge="1" parent="1" source="3a17f1ce550125da-2" target="gDxfWNVTR-VDd6POjb5O-3">
          <mxGeometry relative="1" as="geometry" />
        </mxCell>
        <mxCell id="3a17f1ce550125da-2" value="Ethereum Virtual Machine (EVM)&lt;br&gt;" style="whiteSpace=wrap;html=1;shadow=1;fontSize=18;fillColor=#f5f5f5;strokeColor=#666666;" parent="1" vertex="1">
          <mxGeometry x="566.5" y="730" width="340" height="60" as="geometry" />
        </mxCell>
        <mxCell id="3a17f1ce550125da-18" style="edgeStyle=elbowEdgeStyle;rounded=0;html=1;startArrow=none;startFill=0;jettySize=auto;orthogonalLoop=1;fontSize=18;elbow=vertical;" parent="1" edge="1">
          <mxGeometry relative="1" as="geometry">
            <mxPoint x="799.5" y="834" as="sourcePoint" />
            <mxPoint x="799.5" y="834" as="targetPoint" />
          </mxGeometry>
        </mxCell>
        <mxCell id="gDxfWNVTR-VDd6POjb5O-3" value="BLOK" style="whiteSpace=wrap;html=1;shadow=1;fontSize=18;fillColor=#f5f5f5;fontColor=#333333;strokeColor=#666666;" vertex="1" parent="1">
          <mxGeometry x="690" y="850" width="93" height="60" as="geometry" />
        </mxCell>
        <mxCell id="gDxfWNVTR-VDd6POjb5O-16" style="edgeStyle=orthogonalEdgeStyle;rounded=0;orthogonalLoop=1;jettySize=auto;html=1;exitX=1;exitY=0.5;exitDx=0;exitDy=0;entryX=0;entryY=0.5;entryDx=0;entryDy=0;shape=link;strokeWidth=1;" edge="1" parent="1" source="gDxfWNVTR-VDd6POjb5O-11" target="gDxfWNVTR-VDd6POjb5O-13">
          <mxGeometry relative="1" as="geometry" />
        </mxCell>
        <mxCell id="gDxfWNVTR-VDd6POjb5O-11" value="BLOK" style="whiteSpace=wrap;html=1;shadow=1;fontSize=18;fillColor=#f5f5f5;fontColor=#333333;strokeColor=#666666;" vertex="1" parent="1">
          <mxGeometry x="450" y="850" width="93" height="60" as="geometry" />
        </mxCell>
        <mxCell id="gDxfWNVTR-VDd6POjb5O-20" style="edgeStyle=orthogonalEdgeStyle;rounded=0;orthogonalLoop=1;jettySize=auto;html=1;exitX=0;exitY=0.5;exitDx=0;exitDy=0;shape=link;" edge="1" parent="1" source="gDxfWNVTR-VDd6POjb5O-12" target="gDxfWNVTR-VDd6POjb5O-14">
          <mxGeometry relative="1" as="geometry" />
        </mxCell>
        <mxCell id="gDxfWNVTR-VDd6POjb5O-12" value="BLOK" style="whiteSpace=wrap;html=1;shadow=1;fontSize=18;fillColor=#f5f5f5;fontColor=#333333;strokeColor=#666666;" vertex="1" parent="1">
          <mxGeometry x="930" y="850" width="93" height="60" as="geometry" />
        </mxCell>
        <mxCell id="gDxfWNVTR-VDd6POjb5O-18" style="edgeStyle=orthogonalEdgeStyle;rounded=0;orthogonalLoop=1;jettySize=auto;html=1;exitX=1;exitY=0.5;exitDx=0;exitDy=0;entryX=0;entryY=0.5;entryDx=0;entryDy=0;shape=link;" edge="1" parent="1" source="gDxfWNVTR-VDd6POjb5O-13" target="gDxfWNVTR-VDd6POjb5O-3">
          <mxGeometry relative="1" as="geometry" />
        </mxCell>
        <mxCell id="gDxfWNVTR-VDd6POjb5O-13" value="BLOK" style="whiteSpace=wrap;html=1;shadow=1;fontSize=18;fillColor=#f5f5f5;fontColor=#333333;strokeColor=#666666;" vertex="1" parent="1">
          <mxGeometry x="570" y="850" width="93" height="60" as="geometry" />
        </mxCell>
        <mxCell id="gDxfWNVTR-VDd6POjb5O-19" style="edgeStyle=orthogonalEdgeStyle;rounded=0;orthogonalLoop=1;jettySize=auto;html=1;exitX=0;exitY=0.5;exitDx=0;exitDy=0;entryX=1;entryY=0.5;entryDx=0;entryDy=0;shape=link;" edge="1" parent="1" source="gDxfWNVTR-VDd6POjb5O-14" target="gDxfWNVTR-VDd6POjb5O-3">
          <mxGeometry relative="1" as="geometry" />
        </mxCell>
        <mxCell id="gDxfWNVTR-VDd6POjb5O-14" value="BLOK" style="whiteSpace=wrap;html=1;shadow=1;fontSize=18;fillColor=#f5f5f5;fontColor=#333333;strokeColor=#666666;" vertex="1" parent="1">
          <mxGeometry x="813" y="850" width="93" height="60" as="geometry" />
        </mxCell>
        <mxCell id="gDxfWNVTR-VDd6POjb5O-22" style="edgeStyle=orthogonalEdgeStyle;rounded=0;orthogonalLoop=1;jettySize=auto;html=1;entryX=0.001;entryY=0.65;entryDx=0;entryDy=0;entryPerimeter=0;" edge="1" parent="1" source="gDxfWNVTR-VDd6POjb5O-21" target="3a17f1ce550125da-2">
          <mxGeometry relative="1" as="geometry" />
        </mxCell>
        <mxCell id="gDxfWNVTR-VDd6POjb5O-21" value="Chytr치 smlouva" style="shape=document;whiteSpace=wrap;html=1;boundedLbl=1;" vertex="1" parent="1">
          <mxGeometry x="390" y="660" width="120" height="80" as="geometry" />
        </mxCell>
        <mxCell id="gDxfWNVTR-VDd6POjb5O-27" style="edgeStyle=orthogonalEdgeStyle;rounded=0;orthogonalLoop=1;jettySize=auto;html=1;" edge="1" parent="1" source="gDxfWNVTR-VDd6POjb5O-23" target="3a17f1ce550125da-2">
          <mxGeometry relative="1" as="geometry" />
        </mxCell>
        <mxCell id="gDxfWNVTR-VDd6POjb5O-23" value="Chytr치 smlouva" style="shape=document;whiteSpace=wrap;html=1;boundedLbl=1;" vertex="1" parent="1">
          <mxGeometry x="570" y="610" width="120" height="80" as="geometry" />
        </mxCell>
        <mxCell id="gDxfWNVTR-VDd6POjb5O-28" style="edgeStyle=orthogonalEdgeStyle;rounded=0;orthogonalLoop=1;jettySize=auto;html=1;" edge="1" parent="1" source="gDxfWNVTR-VDd6POjb5O-24" target="3a17f1ce550125da-2">
          <mxGeometry relative="1" as="geometry" />
        </mxCell>
        <mxCell id="gDxfWNVTR-VDd6POjb5O-24" value="Chytr치 smlouva" style="shape=document;whiteSpace=wrap;html=1;boundedLbl=1;" vertex="1" parent="1">
          <mxGeometry x="799.5" y="610" width="120" height="80" as="geometry" />
        </mxCell>
        <mxCell id="gDxfWNVTR-VDd6POjb5O-29" style="edgeStyle=orthogonalEdgeStyle;rounded=0;orthogonalLoop=1;jettySize=auto;html=1;entryX=1;entryY=0.75;entryDx=0;entryDy=0;" edge="1" parent="1" source="gDxfWNVTR-VDd6POjb5O-25" target="3a17f1ce550125da-2">
          <mxGeometry relative="1" as="geometry" />
        </mxCell>
        <mxCell id="gDxfWNVTR-VDd6POjb5O-25" value="Chytr치 smlouva" style="shape=document;whiteSpace=wrap;html=1;boundedLbl=1;" vertex="1" parent="1">
          <mxGeometry x="960" y="660" width="120" height="80" as="geometry" />
        </mxCell>
        <mxCell id="gDxfWNVTR-VDd6POjb5O-31" value="" style="rounded=0;whiteSpace=wrap;html=1;fillColor=none;strokeColor=default;dashed=1;movable=1;resizable=1;rotatable=1;deletable=1;editable=1;locked=0;connectable=1;" vertex="1" parent="1">
          <mxGeometry x="366.5" y="590" width="740" height="360" as="geometry" />
        </mxCell>
        <mxCell id="gDxfWNVTR-VDd6POjb5O-45" style="edgeStyle=orthogonalEdgeStyle;rounded=0;orthogonalLoop=1;jettySize=auto;html=1;endArrow=classic;endFill=1;startArrow=classic;startFill=1;" edge="1" parent="1" source="gDxfWNVTR-VDd6POjb5O-33" target="gDxfWNVTR-VDd6POjb5O-39">
          <mxGeometry relative="1" as="geometry" />
        </mxCell>
        <mxCell id="gDxfWNVTR-VDd6POjb5O-48" style="edgeStyle=orthogonalEdgeStyle;rounded=0;orthogonalLoop=1;jettySize=auto;html=1;startArrow=classic;startFill=1;" edge="1" parent="1" source="gDxfWNVTR-VDd6POjb5O-33" target="gDxfWNVTR-VDd6POjb5O-43">
          <mxGeometry relative="1" as="geometry" />
        </mxCell>
        <mxCell id="gDxfWNVTR-VDd6POjb5O-33" value="" style="shape=actor;whiteSpace=wrap;html=1;" vertex="1" parent="1">
          <mxGeometry x="710" y="140" width="40" height="60" as="geometry" />
        </mxCell>
        <mxCell id="gDxfWNVTR-VDd6POjb5O-51" style="edgeStyle=orthogonalEdgeStyle;rounded=0;orthogonalLoop=1;jettySize=auto;html=1;startArrow=classic;startFill=1;" edge="1" parent="1" source="gDxfWNVTR-VDd6POjb5O-34" target="gDxfWNVTR-VDd6POjb5O-35">
          <mxGeometry relative="1" as="geometry" />
        </mxCell>
        <mxCell id="gDxfWNVTR-VDd6POjb5O-34" value="Front end&lt;br&gt;JavaScript, Html, Css" style="rounded=0;whiteSpace=wrap;html=1;" vertex="1" parent="1">
          <mxGeometry x="670" y="360" width="120" height="60" as="geometry" />
        </mxCell>
        <mxCell id="gDxfWNVTR-VDd6POjb5O-36" style="edgeStyle=orthogonalEdgeStyle;rounded=0;orthogonalLoop=1;jettySize=auto;html=1;entryX=0.491;entryY=0.008;entryDx=0;entryDy=0;entryPerimeter=0;" edge="1" parent="1" source="gDxfWNVTR-VDd6POjb5O-35" target="gDxfWNVTR-VDd6POjb5O-31">
          <mxGeometry relative="1" as="geometry" />
        </mxCell>
        <mxCell id="gDxfWNVTR-VDd6POjb5O-35" value="Provider&lt;br&gt;Ether.js, Web3.js" style="rounded=0;whiteSpace=wrap;html=1;" vertex="1" parent="1">
          <mxGeometry x="670" y="470" width="120" height="60" as="geometry" />
        </mxCell>
        <mxCell id="gDxfWNVTR-VDd6POjb5O-49" style="edgeStyle=orthogonalEdgeStyle;rounded=0;orthogonalLoop=1;jettySize=auto;html=1;entryX=1;entryY=0.5;entryDx=0;entryDy=0;startArrow=classic;startFill=1;" edge="1" parent="1" source="gDxfWNVTR-VDd6POjb5O-39" target="gDxfWNVTR-VDd6POjb5O-34">
          <mxGeometry relative="1" as="geometry" />
        </mxCell>
        <mxCell id="gDxfWNVTR-VDd6POjb5O-39" value="MetaMask" style="rhombus;whiteSpace=wrap;html=1;" vertex="1" parent="1">
          <mxGeometry x="870" y="240" width="100" height="80" as="geometry" />
        </mxCell>
        <mxCell id="gDxfWNVTR-VDd6POjb5O-50" style="edgeStyle=orthogonalEdgeStyle;rounded=0;orthogonalLoop=1;jettySize=auto;html=1;startArrow=classic;startFill=1;" edge="1" parent="1" source="gDxfWNVTR-VDd6POjb5O-43" target="gDxfWNVTR-VDd6POjb5O-34">
          <mxGeometry relative="1" as="geometry" />
        </mxCell>
        <mxCell id="gDxfWNVTR-VDd6POjb5O-43" value="" style="dashed=0;outlineConnect=0;html=1;align=center;labelPosition=center;verticalLabelPosition=bottom;verticalAlign=top;shape=mxgraph.weblogos.chrome" vertex="1" parent="1">
          <mxGeometry x="706.3000000000001" y="260" width="47.4" height="47.7" as="geometry" />
        </mxCell>
      </root>
    </mxGraphModel>
  </diagram>
</mxfile>
